<?xml version="1.0" encoding="utf-8" standalone="no"?>
<!DOCTYPE svg PUBLIC "-//W3C//DTD SVG 1.1//EN"
  "http://www.w3.org/Graphics/SVG/1.1/DTD/svg11.dtd">
<svg xmlns:xlink="http://www.w3.org/1999/xlink" width="720pt" height="432pt" viewBox="0 0 720 432" xmlns="http://www.w3.org/2000/svg" version="1.1">
 <metadata>
  <rdf:RDF xmlns:dc="http://purl.org/dc/elements/1.1/" xmlns:cc="http://creativecommons.org/ns#" xmlns:rdf="http://www.w3.org/1999/02/22-rdf-syntax-ns#">
   <cc:Work>
    <dc:type rdf:resource="http://purl.org/dc/dcmitype/StillImage"/>
    <dc:date>2024-09-03T23:47:56.277072</dc:date>
    <dc:format>image/svg+xml</dc:format>
    <dc:creator>
     <cc:Agent>
      <dc:title>Matplotlib v3.6.2, https://matplotlib.org/</dc:title>
     </cc:Agent>
    </dc:creator>
   </cc:Work>
  </rdf:RDF>
 </metadata>
 <defs>
  <style type="text/css">*{stroke-linejoin: round; stroke-linecap: butt}</style>
 </defs>
 <g id="figure_1">
  <g id="patch_1">
   <path d="M 0 432 
L 720 432 
L 720 0 
L 0 0 
z
" style="fill: #ffffff"/>
  </g>
  <g id="axes_1">
   <g id="patch_2">
    <path d="M 90 384.48 
L 648 384.48 
L 648 51.84 
L 90 51.84 
z
" style="fill: #ffffff"/>
   </g>
   <g id="PolyCollection_1">
    <path d="M 115.363636 483.383659 
L 115.363636 285.576341 
L 125.716141 -337.6776 
L 136.068646 -1259.454269 
L 146.42115 -1792.070735 
L 156.773655 -2224.15354 
L 167.12616 -2497.697267 
L 177.478664 -2834.752054 
L 187.831169 -3142.617768 
L 198.183673 -3255.318439 
L 208.536178 -3041.238735 
L 218.888683 -2774.675987 
L 229.241187 -2415.746189 
L 239.593692 -2001.299673 
L 249.946197 -1418.479702 
L 260.298701 -701.653187 
L 270.651206 -175.589183 
L 281.003711 512.470903 
L 291.356215 1247.52523 
L 301.70872 1845.798908 
L 312.061224 2293.827218 
L 322.413729 3032.479593 
L 332.766234 3383.953106 
L 343.118738 3564.067948 
L 353.471243 3385.514014 
L 363.823748 3366.741063 
L 374.176252 3387.332893 
L 384.528757 2847.707616 
L 394.881262 2485.540963 
L 405.233766 1887.285973 
L 415.586271 1277.719407 
L 425.938776 762.489958 
L 436.29128 61.638056 
L 446.643785 -616.674719 
L 456.996289 -1189.761504 
L 467.348794 -1652.099662 
L 477.701299 -2379.415165 
L 488.053803 -2632.223832 
L 498.406308 -3007.215793 
L 508.758813 -2984.984624 
L 519.111317 -3036.350111 
L 529.463822 -3111.196046 
L 539.816327 -2682.034141 
L 550.168831 -2210.318773 
L 560.521336 -1781.536517 
L 570.87384 -1295.499675 
L 581.226345 -592.156745 
L 591.57885 -48.871931 
L 601.931354 890.404001 
L 612.283859 1330.925419 
L 622.636364 1895.269749 
L 622.636364 2492.953898 
L 622.636364 2492.953898 
L 612.283859 1850.861632 
L 601.931354 984.80217 
L 591.57885 571.582521 
L 581.226345 -227.407675 
L 570.87384 -800.408115 
L 560.521336 -1471.808427 
L 550.168831 -2033.517727 
L 539.816327 -2344.238008 
L 529.463822 -2456.980885 
L 519.111317 -2810.709001 
L 508.758813 -2866.359074 
L 498.406308 -2573.637066 
L 488.053803 -2414.589471 
L 477.701299 -1891.975157 
L 467.348794 -1634.668151 
L 456.996289 -944.050987 
L 446.643785 -243.703002 
L 436.29128 419.044588 
L 425.938776 1071.21799 
L 415.586271 1864.821527 
L 405.233766 2465.57257 
L 394.881262 2928.88563 
L 384.528757 3435.477132 
L 374.176252 3535.742345 
L 363.823748 3940.798371 
L 353.471243 4035.106151 
L 343.118738 3693.556074 
L 332.766234 3441.363045 
L 322.413729 3109.159881 
L 312.061224 2941.142743 
L 301.70872 2297.139985 
L 291.356215 1663.345743 
L 281.003711 1077.432225 
L 270.651206 410.451257 
L 260.298701 -396.358082 
L 249.946197 -934.916346 
L 239.593692 -1477.887897 
L 229.241187 -2012.913718 
L 218.888683 -2387.729261 
L 208.536178 -2608.73079 
L 198.183673 -2615.797963 
L 187.831169 -2674.049419 
L 177.478664 -2654.129739 
L 167.12616 -2403.667672 
L 156.773655 -1854.347948 
L 146.42115 -1262.373616 
L 136.068646 -612.242709 
L 125.716141 -241.671648 
L 115.363636 483.383659 
z
" clip-path="url(#p02c0965ab5)" style="fill: #0000ff; fill-opacity: 0.3; stroke: #0000ff; stroke-opacity: 0.3"/>
   </g>
   <g id="PolyCollection_2">
    <path d="M 115.363636 -2941.600645 
L 115.363636 -2942.239355 
L 125.716141 -2952.658561 
L 136.068646 -2907.091293 
L 146.42115 -2382.940463 
L 156.773655 -2163.753195 
L 167.12616 -1669.129126 
L 177.478664 -925.254211 
L 187.831169 -202.679096 
L 198.183673 313.899051 
L 208.536178 1063.233451 
L 218.888683 1659.681422 
L 229.241187 2312.005502 
L 239.593692 2622.624216 
L 249.946197 3202.820593 
L 260.298701 3302.102704 
L 270.651206 3380.918044 
L 281.003711 3377.347944 
L 291.356215 3360.225941 
L 301.70872 3157.591079 
L 312.061224 2668.317586 
L 322.413729 2333.163177 
L 332.766234 1678.726882 
L 343.118738 1113.235793 
L 353.471243 224.496538 
L 363.823748 -540.493622 
L 374.176252 -1131.941602 
L 384.528757 -1642.581844 
L 394.881262 -2321.496937 
L 405.233766 -2657.610499 
L 415.586271 -2830.504376 
L 425.938776 -3060.209356 
L 436.29128 -3169.359779 
L 446.643785 -3160.504322 
L 456.996289 -2732.155243 
L 467.348794 -2571.680669 
L 477.701299 -2061.000189 
L 488.053803 -1357.748876 
L 498.406308 -859.226098 
L 508.758813 -198.764627 
L 519.111317 705.634677 
L 529.463822 1178.365515 
L 539.816327 1810.383413 
L 550.168831 2269.980475 
L 560.521336 2711.506914 
L 570.87384 3113.839077 
L 581.226345 3572.997903 
L 591.57885 3624.627303 
L 601.931354 3407.597996 
L 612.283859 3306.194784 
L 622.636364 2977.77473 
L 622.636364 3373.360339 
L 622.636364 3373.360339 
L 612.283859 3662.605009 
L 601.931354 3921.542433 
L 591.57885 3792.573748 
L 581.226345 3656.328806 
L 570.87384 3659.476041 
L 560.521336 3356.586107 
L 550.168831 2872.950157 
L 539.816327 2225.843362 
L 529.463822 1615.549634 
L 519.111317 761.923167 
L 508.758813 310.969892 
L 498.406308 -356.662638 
L 488.053803 -1103.852798 
L 477.701299 -1512.230096 
L 467.348794 -1932.955803 
L 456.996289 -2485.007016 
L 446.643785 -2520.729972 
L 436.29128 -2708.231508 
L 425.938776 -2737.874091 
L 415.586271 -2615.506372 
L 405.233766 -2178.375448 
L 394.881262 -1671.831165 
L 384.528757 -1310.429846 
L 374.176252 -626.273397 
L 363.823748 81.965605 
L 353.471243 667.609266 
L 343.118738 1124.39267 
L 332.766234 1843.467219 
L 322.413729 2359.323695 
L 312.061224 3031.61624 
L 301.70872 3345.129839 
L 291.356215 3707.302565 
L 281.003711 3993.566329 
L 270.651206 4019.368162 
L 260.298701 3852.32252 
L 249.946197 3440.715184 
L 239.593692 3266.198093 
L 229.241187 2609.603669 
L 218.888683 2122.359084 
L 208.536178 1454.18061 
L 198.183673 866.319052 
L 187.831169 28.631991 
L 177.478664 -563.918632 
L 167.12616 -1041.445746 
L 156.773655 -1623.805758 
L 146.42115 -2292.484444 
L 136.068646 -2430.230601 
L 125.716141 -2793.119347 
L 115.363636 -2941.600645 
z
" clip-path="url(#p02c0965ab5)" style="fill: #ff0000; fill-opacity: 0.3; stroke: #ff0000; stroke-opacity: 0.3"/>
   </g>
   <g id="matplotlib.axis_1">
    <g id="xtick_1">
     <g id="line2d_1">
      <defs>
       <path id="m5dcd1e4a25" d="M 0 0 
L 0 -3.5 
" style="stroke: #000000; stroke-width: 0.8"/>
      </defs>
      <g>
       <use xlink:href="#m5dcd1e4a25" x="115.363636" y="384.48" style="stroke: #000000; stroke-width: 0.8"/>
      </g>
     </g>
     <g id="text_1">
      <!-- 0 -->
      <g transform="translate(112.182386 395.578438) scale(0.1 -0.1)">
       <defs>
        <path id="DejaVuSans-30" d="M 2034 4250 
Q 1547 4250 1301 3770 
Q 1056 3291 1056 2328 
Q 1056 1369 1301 889 
Q 1547 409 2034 409 
Q 2525 409 2770 889 
Q 3016 1369 3016 2328 
Q 3016 3291 2770 3770 
Q 2525 4250 2034 4250 
z
M 2034 4750 
Q 2819 4750 3233 4129 
Q 3647 3509 3647 2328 
Q 3647 1150 3233 529 
Q 2819 -91 2034 -91 
Q 1250 -91 836 529 
Q 422 1150 422 2328 
Q 422 3509 836 4129 
Q 1250 4750 2034 4750 
z
" transform="scale(0.015625)"/>
       </defs>
       <use xlink:href="#DejaVuSans-30"/>
      </g>
     </g>
    </g>
    <g id="xtick_2">
     <g id="line2d_2">
      <g>
       <use xlink:href="#m5dcd1e4a25" x="216.818182" y="384.48" style="stroke: #000000; stroke-width: 0.8"/>
      </g>
     </g>
     <g id="text_2">
      <!-- 2 -->
      <g transform="translate(213.636932 395.578438) scale(0.1 -0.1)">
       <defs>
        <path id="DejaVuSans-32" d="M 1228 531 
L 3431 531 
L 3431 0 
L 469 0 
L 469 531 
Q 828 903 1448 1529 
Q 2069 2156 2228 2338 
Q 2531 2678 2651 2914 
Q 2772 3150 2772 3378 
Q 2772 3750 2511 3984 
Q 2250 4219 1831 4219 
Q 1534 4219 1204 4116 
Q 875 4013 500 3803 
L 500 4441 
Q 881 4594 1212 4672 
Q 1544 4750 1819 4750 
Q 2544 4750 2975 4387 
Q 3406 4025 3406 3419 
Q 3406 3131 3298 2873 
Q 3191 2616 2906 2266 
Q 2828 2175 2409 1742 
Q 1991 1309 1228 531 
z
" transform="scale(0.015625)"/>
       </defs>
       <use xlink:href="#DejaVuSans-32"/>
      </g>
     </g>
    </g>
    <g id="xtick_3">
     <g id="line2d_3">
      <g>
       <use xlink:href="#m5dcd1e4a25" x="318.272727" y="384.48" style="stroke: #000000; stroke-width: 0.8"/>
      </g>
     </g>
     <g id="text_3">
      <!-- 4 -->
      <g transform="translate(315.091477 395.578438) scale(0.1 -0.1)">
       <defs>
        <path id="DejaVuSans-34" d="M 2419 4116 
L 825 1625 
L 2419 1625 
L 2419 4116 
z
M 2253 4666 
L 3047 4666 
L 3047 1625 
L 3713 1625 
L 3713 1100 
L 3047 1100 
L 3047 0 
L 2419 0 
L 2419 1100 
L 313 1100 
L 313 1709 
L 2253 4666 
z
" transform="scale(0.015625)"/>
       </defs>
       <use xlink:href="#DejaVuSans-34"/>
      </g>
     </g>
    </g>
    <g id="xtick_4">
     <g id="line2d_4">
      <g>
       <use xlink:href="#m5dcd1e4a25" x="419.727273" y="384.48" style="stroke: #000000; stroke-width: 0.8"/>
      </g>
     </g>
     <g id="text_4">
      <!-- 6 -->
      <g transform="translate(416.546023 395.578438) scale(0.1 -0.1)">
       <defs>
        <path id="DejaVuSans-36" d="M 2113 2584 
Q 1688 2584 1439 2293 
Q 1191 2003 1191 1497 
Q 1191 994 1439 701 
Q 1688 409 2113 409 
Q 2538 409 2786 701 
Q 3034 994 3034 1497 
Q 3034 2003 2786 2293 
Q 2538 2584 2113 2584 
z
M 3366 4563 
L 3366 3988 
Q 3128 4100 2886 4159 
Q 2644 4219 2406 4219 
Q 1781 4219 1451 3797 
Q 1122 3375 1075 2522 
Q 1259 2794 1537 2939 
Q 1816 3084 2150 3084 
Q 2853 3084 3261 2657 
Q 3669 2231 3669 1497 
Q 3669 778 3244 343 
Q 2819 -91 2113 -91 
Q 1303 -91 875 529 
Q 447 1150 447 2328 
Q 447 3434 972 4092 
Q 1497 4750 2381 4750 
Q 2619 4750 2861 4703 
Q 3103 4656 3366 4563 
z
" transform="scale(0.015625)"/>
       </defs>
       <use xlink:href="#DejaVuSans-36"/>
      </g>
     </g>
    </g>
    <g id="xtick_5">
     <g id="line2d_5">
      <g>
       <use xlink:href="#m5dcd1e4a25" x="521.181818" y="384.48" style="stroke: #000000; stroke-width: 0.8"/>
      </g>
     </g>
     <g id="text_5">
      <!-- 8 -->
      <g transform="translate(518.000568 395.578438) scale(0.1 -0.1)">
       <defs>
        <path id="DejaVuSans-38" d="M 2034 2216 
Q 1584 2216 1326 1975 
Q 1069 1734 1069 1313 
Q 1069 891 1326 650 
Q 1584 409 2034 409 
Q 2484 409 2743 651 
Q 3003 894 3003 1313 
Q 3003 1734 2745 1975 
Q 2488 2216 2034 2216 
z
M 1403 2484 
Q 997 2584 770 2862 
Q 544 3141 544 3541 
Q 544 4100 942 4425 
Q 1341 4750 2034 4750 
Q 2731 4750 3128 4425 
Q 3525 4100 3525 3541 
Q 3525 3141 3298 2862 
Q 3072 2584 2669 2484 
Q 3125 2378 3379 2068 
Q 3634 1759 3634 1313 
Q 3634 634 3220 271 
Q 2806 -91 2034 -91 
Q 1263 -91 848 271 
Q 434 634 434 1313 
Q 434 1759 690 2068 
Q 947 2378 1403 2484 
z
M 1172 3481 
Q 1172 3119 1398 2916 
Q 1625 2713 2034 2713 
Q 2441 2713 2670 2916 
Q 2900 3119 2900 3481 
Q 2900 3844 2670 4047 
Q 2441 4250 2034 4250 
Q 1625 4250 1398 4047 
Q 1172 3844 1172 3481 
z
" transform="scale(0.015625)"/>
       </defs>
       <use xlink:href="#DejaVuSans-38"/>
      </g>
     </g>
    </g>
    <g id="xtick_6">
     <g id="line2d_6">
      <g>
       <use xlink:href="#m5dcd1e4a25" x="622.636364" y="384.48" style="stroke: #000000; stroke-width: 0.8"/>
      </g>
     </g>
     <g id="text_6">
      <!-- 10 -->
      <g transform="translate(616.273864 395.578438) scale(0.1 -0.1)">
       <defs>
        <path id="DejaVuSans-31" d="M 794 531 
L 1825 531 
L 1825 4091 
L 703 3866 
L 703 4441 
L 1819 4666 
L 2450 4666 
L 2450 531 
L 3481 531 
L 3481 0 
L 794 0 
L 794 531 
z
" transform="scale(0.015625)"/>
       </defs>
       <use xlink:href="#DejaVuSans-31"/>
       <use xlink:href="#DejaVuSans-30" x="63.623047"/>
      </g>
     </g>
    </g>
   </g>
   <g id="matplotlib.axis_2">
    <g id="ytick_1">
     <g id="line2d_7">
      <defs>
       <path id="m2c207fbeaf" d="M 0 0 
L 3.5 0 
" style="stroke: #000000; stroke-width: 0.8"/>
      </defs>
      <g>
       <use xlink:href="#m2c207fbeaf" x="90" y="384.48" style="stroke: #000000; stroke-width: 0.8"/>
      </g>
     </g>
     <g id="text_7">
      <!-- 0.000 -->
      <g transform="translate(57.871875 388.279219) scale(0.1 -0.1)">
       <defs>
        <path id="DejaVuSans-2e" d="M 684 794 
L 1344 794 
L 1344 0 
L 684 0 
L 684 794 
z
" transform="scale(0.015625)"/>
       </defs>
       <use xlink:href="#DejaVuSans-30"/>
       <use xlink:href="#DejaVuSans-2e" x="63.623047"/>
       <use xlink:href="#DejaVuSans-30" x="95.410156"/>
       <use xlink:href="#DejaVuSans-30" x="159.033203"/>
       <use xlink:href="#DejaVuSans-30" x="222.65625"/>
      </g>
     </g>
    </g>
    <g id="ytick_2">
     <g id="line2d_8">
      <g>
       <use xlink:href="#m2c207fbeaf" x="90" y="317.952" style="stroke: #000000; stroke-width: 0.8"/>
      </g>
     </g>
     <g id="text_8">
      <!-- 0.002 -->
      <g transform="translate(57.871875 321.751219) scale(0.1 -0.1)">
       <use xlink:href="#DejaVuSans-30"/>
       <use xlink:href="#DejaVuSans-2e" x="63.623047"/>
       <use xlink:href="#DejaVuSans-30" x="95.410156"/>
       <use xlink:href="#DejaVuSans-30" x="159.033203"/>
       <use xlink:href="#DejaVuSans-32" x="222.65625"/>
      </g>
     </g>
    </g>
    <g id="ytick_3">
     <g id="line2d_9">
      <g>
       <use xlink:href="#m2c207fbeaf" x="90" y="251.424" style="stroke: #000000; stroke-width: 0.8"/>
      </g>
     </g>
     <g id="text_9">
      <!-- 0.004 -->
      <g transform="translate(57.871875 255.223219) scale(0.1 -0.1)">
       <use xlink:href="#DejaVuSans-30"/>
       <use xlink:href="#DejaVuSans-2e" x="63.623047"/>
       <use xlink:href="#DejaVuSans-30" x="95.410156"/>
       <use xlink:href="#DejaVuSans-30" x="159.033203"/>
       <use xlink:href="#DejaVuSans-34" x="222.65625"/>
      </g>
     </g>
    </g>
    <g id="ytick_4">
     <g id="line2d_10">
      <g>
       <use xlink:href="#m2c207fbeaf" x="90" y="184.896" style="stroke: #000000; stroke-width: 0.8"/>
      </g>
     </g>
     <g id="text_10">
      <!-- 0.006 -->
      <g transform="translate(57.871875 188.695219) scale(0.1 -0.1)">
       <use xlink:href="#DejaVuSans-30"/>
       <use xlink:href="#DejaVuSans-2e" x="63.623047"/>
       <use xlink:href="#DejaVuSans-30" x="95.410156"/>
       <use xlink:href="#DejaVuSans-30" x="159.033203"/>
       <use xlink:href="#DejaVuSans-36" x="222.65625"/>
      </g>
     </g>
    </g>
    <g id="ytick_5">
     <g id="line2d_11">
      <g>
       <use xlink:href="#m2c207fbeaf" x="90" y="118.368" style="stroke: #000000; stroke-width: 0.8"/>
      </g>
     </g>
     <g id="text_11">
      <!-- 0.008 -->
      <g transform="translate(57.871875 122.167219) scale(0.1 -0.1)">
       <use xlink:href="#DejaVuSans-30"/>
       <use xlink:href="#DejaVuSans-2e" x="63.623047"/>
       <use xlink:href="#DejaVuSans-30" x="95.410156"/>
       <use xlink:href="#DejaVuSans-30" x="159.033203"/>
       <use xlink:href="#DejaVuSans-38" x="222.65625"/>
      </g>
     </g>
    </g>
    <g id="ytick_6">
     <g id="line2d_12">
      <g>
       <use xlink:href="#m2c207fbeaf" x="90" y="51.84" style="stroke: #000000; stroke-width: 0.8"/>
      </g>
     </g>
     <g id="text_12">
      <!-- 0.010 -->
      <g transform="translate(57.871875 55.639219) scale(0.1 -0.1)">
       <use xlink:href="#DejaVuSans-30"/>
       <use xlink:href="#DejaVuSans-2e" x="63.623047"/>
       <use xlink:href="#DejaVuSans-30" x="95.410156"/>
       <use xlink:href="#DejaVuSans-31" x="159.033203"/>
       <use xlink:href="#DejaVuSans-30" x="222.65625"/>
      </g>
     </g>
    </g>
   </g>
   <g id="line2d_13">
    <path d="M 115.363636 384.48 
L 121.283174 -1 
M 268.811484 -1 
L 270.651206 117.431037 
L 275.473095 433 
M 433.343072 433 
L 436.29128 240.341322 
L 440.017417 -1 
M 587.531938 -1 
L 591.57885 261.355295 
L 594.206515 433 
" clip-path="url(#p02c0965ab5)" style="fill: none; stroke-dasharray: 1.5,2.475; stroke-dashoffset: 0; stroke: #0000ff; stroke-width: 1.5"/>
    <defs>
     <path id="m47eaa4a53b" d="M 0 5 
C 1.326016 5 2.597899 4.473168 3.535534 3.535534 
C 4.473168 2.597899 5 1.326016 5 0 
C 5 -1.326016 4.473168 -2.597899 3.535534 -3.535534 
C 2.597899 -4.473168 1.326016 -5 0 -5 
C -1.326016 -5 -2.597899 -4.473168 -3.535534 -3.535534 
C -4.473168 -2.597899 -5 -1.326016 -5 0 
C -5 1.326016 -4.473168 2.597899 -3.535534 3.535534 
C -2.597899 4.473168 -1.326016 5 0 5 
z
" style="stroke: #0000ff"/>
    </defs>
    <g clip-path="url(#p02c0965ab5)">
     <use xlink:href="#m47eaa4a53b" x="115.363636" y="384.48" style="fill: #0000ff; stroke: #0000ff"/>
     <use xlink:href="#m47eaa4a53b" x="121.283174" y="-1" style="fill: #0000ff; stroke: #0000ff"/>
     <use xlink:href="#m47eaa4a53b" x="268.811484" y="-1" style="fill: #0000ff; stroke: #0000ff"/>
     <use xlink:href="#m47eaa4a53b" x="270.651206" y="117.431037" style="fill: #0000ff; stroke: #0000ff"/>
     <use xlink:href="#m47eaa4a53b" x="281.003711" y="794.951564" style="fill: #0000ff; stroke: #0000ff"/>
     <use xlink:href="#m47eaa4a53b" x="291.356215" y="1455.435486" style="fill: #0000ff; stroke: #0000ff"/>
     <use xlink:href="#m47eaa4a53b" x="301.70872" y="2071.469446" style="fill: #0000ff; stroke: #0000ff"/>
     <use xlink:href="#m47eaa4a53b" x="312.061224" y="2617.48498" style="fill: #0000ff; stroke: #0000ff"/>
     <use xlink:href="#m47eaa4a53b" x="322.413729" y="3070.819737" style="fill: #0000ff; stroke: #0000ff"/>
     <use xlink:href="#m47eaa4a53b" x="332.766234" y="3412.658076" style="fill: #0000ff; stroke: #0000ff"/>
     <use xlink:href="#m47eaa4a53b" x="343.118738" y="3628.812011" style="fill: #0000ff; stroke: #0000ff"/>
     <use xlink:href="#m47eaa4a53b" x="353.471243" y="3710.310083" style="fill: #0000ff; stroke: #0000ff"/>
     <use xlink:href="#m47eaa4a53b" x="363.823748" y="3653.769717" style="fill: #0000ff; stroke: #0000ff"/>
     <use xlink:href="#m47eaa4a53b" x="374.176252" y="3461.537619" style="fill: #0000ff; stroke: #0000ff"/>
     <use xlink:href="#m47eaa4a53b" x="384.528757" y="3141.592374" style="fill: #0000ff; stroke: #0000ff"/>
     <use xlink:href="#m47eaa4a53b" x="394.881262" y="2707.213297" style="fill: #0000ff; stroke: #0000ff"/>
     <use xlink:href="#m47eaa4a53b" x="405.233766" y="2176.429271" style="fill: #0000ff; stroke: #0000ff"/>
     <use xlink:href="#m47eaa4a53b" x="415.586271" y="1571.270467" style="fill: #0000ff; stroke: #0000ff"/>
     <use xlink:href="#m47eaa4a53b" x="425.938776" y="916.853974" style="fill: #0000ff; stroke: #0000ff"/>
     <use xlink:href="#m47eaa4a53b" x="436.29128" y="240.341322" style="fill: #0000ff; stroke: #0000ff"/>
     <use xlink:href="#m47eaa4a53b" x="440.017417" y="-1" style="fill: #0000ff; stroke: #0000ff"/>
     <use xlink:href="#m47eaa4a53b" x="587.531938" y="-1" style="fill: #0000ff; stroke: #0000ff"/>
     <use xlink:href="#m47eaa4a53b" x="591.57885" y="261.355295" style="fill: #0000ff; stroke: #0000ff"/>
     <use xlink:href="#m47eaa4a53b" x="601.931354" y="937.603085" style="fill: #0000ff; stroke: #0000ff"/>
     <use xlink:href="#m47eaa4a53b" x="612.283859" y="1590.893526" style="fill: #0000ff; stroke: #0000ff"/>
     <use xlink:href="#m47eaa4a53b" x="622.636364" y="2194.111823" style="fill: #0000ff; stroke: #0000ff"/>
    </g>
   </g>
   <g id="line2d_14">
    <path d="M 189.146361 -1 
L 195.781674 433 
M 353.671342 433 
L 360.324495 -1 
M 507.868582 -1 
L 508.758813 56.102633 
L 514.516476 433 
" clip-path="url(#p02c0965ab5)" style="fill: none; stroke-dasharray: 1.5,2.475; stroke-dashoffset: 0; stroke: #ff0000; stroke-width: 1.5"/>
    <defs>
     <path id="m05fdb22409" d="M -2.5 -4.330127 
L -5 -0 
L -2.5 4.330127 
L 2.5 4.330127 
L 5 0 
L 2.5 -4.330127 
z
" style="stroke: #ff0000; stroke-linejoin: miter"/>
    </defs>
    <g clip-path="url(#p02c0965ab5)">
     <use xlink:href="#m05fdb22409" x="189.146361" y="-1" style="fill: #ff0000; stroke: #ff0000; stroke-linejoin: miter"/>
     <use xlink:href="#m05fdb22409" x="198.183673" y="590.109051" style="fill: #ff0000; stroke: #ff0000; stroke-linejoin: miter"/>
     <use xlink:href="#m05fdb22409" x="208.536178" y="1258.70703" style="fill: #ff0000; stroke: #ff0000; stroke-linejoin: miter"/>
     <use xlink:href="#m05fdb22409" x="218.888683" y="1891.020253" style="fill: #ff0000; stroke: #ff0000; stroke-linejoin: miter"/>
     <use xlink:href="#m05fdb22409" x="229.241187" y="2460.804586" style="fill: #ff0000; stroke: #ff0000; stroke-linejoin: miter"/>
     <use xlink:href="#m05fdb22409" x="239.593692" y="2944.411154" style="fill: #ff0000; stroke: #ff0000; stroke-linejoin: miter"/>
     <use xlink:href="#m05fdb22409" x="249.946197" y="3321.767888" style="fill: #ff0000; stroke: #ff0000; stroke-linejoin: miter"/>
     <use xlink:href="#m05fdb22409" x="260.298701" y="3577.212612" style="fill: #ff0000; stroke: #ff0000; stroke-linejoin: miter"/>
     <use xlink:href="#m05fdb22409" x="270.651206" y="3700.143103" style="fill: #ff0000; stroke: #ff0000; stroke-linejoin: miter"/>
     <use xlink:href="#m05fdb22409" x="281.003711" y="3685.457136" style="fill: #ff0000; stroke: #ff0000; stroke-linejoin: miter"/>
     <use xlink:href="#m05fdb22409" x="291.356215" y="3533.764253" style="fill: #ff0000; stroke: #ff0000; stroke-linejoin: miter"/>
     <use xlink:href="#m05fdb22409" x="301.70872" y="3251.360459" style="fill: #ff0000; stroke: #ff0000; stroke-linejoin: miter"/>
     <use xlink:href="#m05fdb22409" x="312.061224" y="2849.966913" style="fill: #ff0000; stroke: #ff0000; stroke-linejoin: miter"/>
     <use xlink:href="#m05fdb22409" x="322.413729" y="2346.243436" style="fill: #ff0000; stroke: #ff0000; stroke-linejoin: miter"/>
     <use xlink:href="#m05fdb22409" x="332.766234" y="1761.09705" style="fill: #ff0000; stroke: #ff0000; stroke-linejoin: miter"/>
     <use xlink:href="#m05fdb22409" x="343.118738" y="1118.814232" style="fill: #ff0000; stroke: #ff0000; stroke-linejoin: miter"/>
     <use xlink:href="#m05fdb22409" x="353.471243" y="446.052902" style="fill: #ff0000; stroke: #ff0000; stroke-linejoin: miter"/>
     <use xlink:href="#m05fdb22409" x="360.324495" y="-1" style="fill: #ff0000; stroke: #ff0000; stroke-linejoin: miter"/>
     <use xlink:href="#m05fdb22409" x="507.868582" y="-1" style="fill: #ff0000; stroke: #ff0000; stroke-linejoin: miter"/>
     <use xlink:href="#m05fdb22409" x="508.758813" y="56.102633" style="fill: #ff0000; stroke: #ff0000; stroke-linejoin: miter"/>
     <use xlink:href="#m05fdb22409" x="519.111317" y="733.778922" style="fill: #ff0000; stroke: #ff0000; stroke-linejoin: miter"/>
     <use xlink:href="#m05fdb22409" x="529.463822" y="1396.957574" style="fill: #ff0000; stroke: #ff0000; stroke-linejoin: miter"/>
     <use xlink:href="#m05fdb22409" x="539.816327" y="2018.113388" style="fill: #ff0000; stroke: #ff0000; stroke-linejoin: miter"/>
     <use xlink:href="#m05fdb22409" x="550.168831" y="2571.465316" style="fill: #ff0000; stroke: #ff0000; stroke-linejoin: miter"/>
     <use xlink:href="#m05fdb22409" x="560.521336" y="3034.046511" style="fill: #ff0000; stroke: #ff0000; stroke-linejoin: miter"/>
     <use xlink:href="#m05fdb22409" x="570.87384" y="3386.657559" style="fill: #ff0000; stroke: #ff0000; stroke-linejoin: miter"/>
     <use xlink:href="#m05fdb22409" x="581.226345" y="3614.663354" style="fill: #ff0000; stroke: #ff0000; stroke-linejoin: miter"/>
     <use xlink:href="#m05fdb22409" x="591.57885" y="3708.600525" style="fill: #ff0000; stroke: #ff0000; stroke-linejoin: miter"/>
     <use xlink:href="#m05fdb22409" x="601.931354" y="3664.570214" style="fill: #ff0000; stroke: #ff0000; stroke-linejoin: miter"/>
     <use xlink:href="#m05fdb22409" x="612.283859" y="3484.399897" style="fill: #ff0000; stroke: #ff0000; stroke-linejoin: miter"/>
     <use xlink:href="#m05fdb22409" x="622.636364" y="3175.567534" style="fill: #ff0000; stroke: #ff0000; stroke-linejoin: miter"/>
    </g>
   </g>
   <g id="patch_3">
    <path d="M 90 384.48 
L 90 51.84 
" style="fill: none; stroke: #000000; stroke-width: 0.8; stroke-linejoin: miter; stroke-linecap: square"/>
   </g>
   <g id="patch_4">
    <path d="M 648 384.48 
L 648 51.84 
" style="fill: none; stroke: #000000; stroke-width: 0.8; stroke-linejoin: miter; stroke-linecap: square"/>
   </g>
   <g id="patch_5">
    <path d="M 90 384.48 
L 648 384.48 
" style="fill: none; stroke: #000000; stroke-width: 0.8; stroke-linejoin: miter; stroke-linecap: square"/>
   </g>
   <g id="patch_6">
    <path d="M 90 51.84 
L 648 51.84 
" style="fill: none; stroke: #000000; stroke-width: 0.8; stroke-linejoin: miter; stroke-linecap: square"/>
   </g>
   <g id="text_13">
    <!-- TestPlot -->
    <g transform="translate(330.4625 45.84) scale(0.2 -0.2)">
     <defs>
      <path id="DejaVuSans-54" d="M -19 4666 
L 3928 4666 
L 3928 4134 
L 2272 4134 
L 2272 0 
L 1638 0 
L 1638 4134 
L -19 4134 
L -19 4666 
z
" transform="scale(0.015625)"/>
      <path id="DejaVuSans-65" d="M 3597 1894 
L 3597 1613 
L 953 1613 
Q 991 1019 1311 708 
Q 1631 397 2203 397 
Q 2534 397 2845 478 
Q 3156 559 3463 722 
L 3463 178 
Q 3153 47 2828 -22 
Q 2503 -91 2169 -91 
Q 1331 -91 842 396 
Q 353 884 353 1716 
Q 353 2575 817 3079 
Q 1281 3584 2069 3584 
Q 2775 3584 3186 3129 
Q 3597 2675 3597 1894 
z
M 3022 2063 
Q 3016 2534 2758 2815 
Q 2500 3097 2075 3097 
Q 1594 3097 1305 2825 
Q 1016 2553 972 2059 
L 3022 2063 
z
" transform="scale(0.015625)"/>
      <path id="DejaVuSans-73" d="M 2834 3397 
L 2834 2853 
Q 2591 2978 2328 3040 
Q 2066 3103 1784 3103 
Q 1356 3103 1142 2972 
Q 928 2841 928 2578 
Q 928 2378 1081 2264 
Q 1234 2150 1697 2047 
L 1894 2003 
Q 2506 1872 2764 1633 
Q 3022 1394 3022 966 
Q 3022 478 2636 193 
Q 2250 -91 1575 -91 
Q 1294 -91 989 -36 
Q 684 19 347 128 
L 347 722 
Q 666 556 975 473 
Q 1284 391 1588 391 
Q 1994 391 2212 530 
Q 2431 669 2431 922 
Q 2431 1156 2273 1281 
Q 2116 1406 1581 1522 
L 1381 1569 
Q 847 1681 609 1914 
Q 372 2147 372 2553 
Q 372 3047 722 3315 
Q 1072 3584 1716 3584 
Q 2034 3584 2315 3537 
Q 2597 3491 2834 3397 
z
" transform="scale(0.015625)"/>
      <path id="DejaVuSans-74" d="M 1172 4494 
L 1172 3500 
L 2356 3500 
L 2356 3053 
L 1172 3053 
L 1172 1153 
Q 1172 725 1289 603 
Q 1406 481 1766 481 
L 2356 481 
L 2356 0 
L 1766 0 
Q 1100 0 847 248 
Q 594 497 594 1153 
L 594 3053 
L 172 3053 
L 172 3500 
L 594 3500 
L 594 4494 
L 1172 4494 
z
" transform="scale(0.015625)"/>
      <path id="DejaVuSans-50" d="M 1259 4147 
L 1259 2394 
L 2053 2394 
Q 2494 2394 2734 2622 
Q 2975 2850 2975 3272 
Q 2975 3691 2734 3919 
Q 2494 4147 2053 4147 
L 1259 4147 
z
M 628 4666 
L 2053 4666 
Q 2838 4666 3239 4311 
Q 3641 3956 3641 3272 
Q 3641 2581 3239 2228 
Q 2838 1875 2053 1875 
L 1259 1875 
L 1259 0 
L 628 0 
L 628 4666 
z
" transform="scale(0.015625)"/>
      <path id="DejaVuSans-6c" d="M 603 4863 
L 1178 4863 
L 1178 0 
L 603 0 
L 603 4863 
z
" transform="scale(0.015625)"/>
      <path id="DejaVuSans-6f" d="M 1959 3097 
Q 1497 3097 1228 2736 
Q 959 2375 959 1747 
Q 959 1119 1226 758 
Q 1494 397 1959 397 
Q 2419 397 2687 759 
Q 2956 1122 2956 1747 
Q 2956 2369 2687 2733 
Q 2419 3097 1959 3097 
z
M 1959 3584 
Q 2709 3584 3137 3096 
Q 3566 2609 3566 1747 
Q 3566 888 3137 398 
Q 2709 -91 1959 -91 
Q 1206 -91 779 398 
Q 353 888 353 1747 
Q 353 2609 779 3096 
Q 1206 3584 1959 3584 
z
" transform="scale(0.015625)"/>
     </defs>
     <use xlink:href="#DejaVuSans-54"/>
     <use xlink:href="#DejaVuSans-65" x="44.083984"/>
     <use xlink:href="#DejaVuSans-73" x="105.607422"/>
     <use xlink:href="#DejaVuSans-74" x="157.707031"/>
     <use xlink:href="#DejaVuSans-50" x="196.916016"/>
     <use xlink:href="#DejaVuSans-6c" x="257.21875"/>
     <use xlink:href="#DejaVuSans-6f" x="285.001953"/>
     <use xlink:href="#DejaVuSans-74" x="346.183594"/>
    </g>
   </g>
  </g>
 </g>
 <defs>
  <clipPath id="p02c0965ab5">
   <rect x="90" y="51.84" width="558" height="332.64"/>
  </clipPath>
 </defs>
</svg>
